<?xml version="1.0" encoding="UTF-8" standalone="no"?>
<!-- Created with Inkscape (http://www.inkscape.org/) -->

<svg
   xmlns:dc="http://purl.org/dc/elements/1.1/"
   xmlns:cc="http://creativecommons.org/ns#"
   xmlns:rdf="http://www.w3.org/1999/02/22-rdf-syntax-ns#"
   xmlns:svg="http://www.w3.org/2000/svg"
   xmlns="http://www.w3.org/2000/svg"
   xmlns:sodipodi="http://sodipodi.sourceforge.net/DTD/sodipodi-0.dtd"
   xmlns:inkscape="http://www.inkscape.org/namespaces/inkscape"
   width="64px"
   height="64px"
   id="svg3020"
   version="1.1"
   inkscape:version="0.92.5 (2060ec1f9f, 2020-04-08)"
   sodipodi:docname="Change3DLayer.svg"
   inkscape:export-filename="/home/xex/programs/qmapshack/src/icons/32x32/Change3DLayer.png"
   inkscape:export-xdpi="48"
   inkscape:export-ydpi="48">
  <defs
     id="defs3022" />
  <sodipodi:namedview
     id="base"
     pagecolor="#ffffff"
     bordercolor="#666666"
     borderopacity="1.0"
     inkscape:pageopacity="0.0"
     inkscape:pageshadow="2"
     inkscape:zoom="7.7781746"
     inkscape:cx="30.707342"
     inkscape:cy="34.632728"
     inkscape:current-layer="layer1"
     showgrid="true"
     inkscape:document-units="px"
     inkscape:grid-bbox="true"
     inkscape:window-width="1366"
     inkscape:window-height="768"
     inkscape:window-x="0"
     inkscape:window-y="25"
     inkscape:window-maximized="0">
    <inkscape:grid
       type="xygrid"
       id="grid3017" />
  </sodipodi:namedview>
  <metadata
     id="metadata3025">
    <rdf:RDF>
      <cc:Work
         rdf:about="">
        <dc:format>image/svg+xml</dc:format>
        <dc:type
           rdf:resource="http://purl.org/dc/dcmitype/StillImage" />
        <dc:title></dc:title>
      </cc:Work>
    </rdf:RDF>
  </metadata>
  <g
     id="layer1"
     inkscape:label="Layer 1"
     inkscape:groupmode="layer">
    <g
       id="g879"
       transform="matrix(0.27053741,0,0,0.27053741,4.9667559,3.8078673)">
      <path
         id="path875"
         d="m 61.44,0 c 33.93,0 61.44,27.51 61.44,61.44 0,33.93 -27.51,61.44 -61.44,61.44 C 27.51,122.88 0,95.37 0,61.44 0,27.51 27.51,0 61.44,0 Z"
         class="st1"
         inkscape:connector-curvature="0"
         style="clip-rule:evenodd;fill:#2394e0;fill-rule:evenodd" />
      <path
         id="path877"
         d="M 11.76,93.18 C 8.14,87.69 5.43,81.54 3.84,74.95 l 10.82,5.22 0.06,3.23 c 0,1.19 -2.02,3.71 -2.67,4.67 z M 78.31,6.5 c 20.62,6.85 36.09,25 39.07,47.1 l -1.95,-0.21 c -0.35,1.5 -0.67,1.53 -0.67,3.33 0,1.59 2,2.65 2,6 0,0.9 -2.11,2.69 -2.2,3.01 l -3.13,-3.67 v 4.67 l -0.47,-0.02 -0.84,-8.62 -1.75,0.55 -2.08,-6.41 -6.85,7.16 -0.08,5.24 -2.24,1.5 -2.38,-13.44 -1.42,1.04 -3.22,-4.35 -4.81,0.14 -1.84,-2.11 -1.89,0.52 -3.71,-4.25 -0.72,0.49 2.3,5.88 h 2.67 v -1.33 h 1.33 c 0.96,2.66 2,1.08 2,2.67 0,5.55 -6.85,9.63 -11.34,10.67 0.24,1 0.15,2 1.33,2 2.51,0 1.26,-0.44 4,-0.67 -0.13,5.67 -6.5,12.44 -9.22,16.65 l 1.22,8.69 c 0.32,1.89 -3.92,3.88 -5.36,6.01 l 0.69,3.33 -1.95,0.79 c -0.34,3.42 -3.66,7.21 -7.39,7.21 h -4 c 0,-4.68 -3.34,-11.37 -3.34,-14.68 0,-2.81 1.33,-3.19 1.33,-6.67 0,-3.22 -3.33,-7.83 -3.33,-8.67 V 70.71 H 45.4 c -0.4,-1.49 -0.15,-2 -2,-2 h -0.67 c -2.91,0 -2.42,1.33 -5.34,1.33 h -2.67 c -2.41,0 -6.67,-7.72 -6.67,-8.67 v -8 c 0,-3.45 3.16,-7.21 5.34,-8.67 v -3.33 l 3,-3.05 1.67,-0.28 c 3.58,0 3.15,-2 5.34,-2 h 6 v 4.67 l 6.6,2.82 0.62,-2.85 c 2.99,0.7 3.77,2.03 7.45,2.03 h 1.33 c 2.53,0 2.67,-3.36 2.67,-6 l -5.34,0.53 -2.33,-5.06 -2.31,0.61 c 0.42,1.81 0.64,1.06 0.64,2.59 0,0.9 -0.74,1 -1.34,1.33 l -2.31,-5.86 -4.97,-3.55 -0.66,0.65 4.23,4.45 c -0.56,1.6 -0.63,6.21 -2.96,2.98 l 2.18,-1.05 -5.44,-5.7 -3.26,1.27 -3.22,3.08 c -0.34,2.48 -1.01,3.73 -3.61,3.73 -1.73,0 -0.69,-0.45 -3.34,-0.67 v -6.67 h 6 l -1.95,-4.44 -0.72,0.44 v -1.34 l 9.75,-4.49 c -0.18,-1.4 -0.41,-0.65 -0.41,-2.18 0,-0.09 0.65,-1.32 0.67,-1.34 l 2.52,1.57 -0.6,-2.87 -3.89,0.8 -0.72,-3.49 c 3.08,-1.62 9.87,-7.34 12.03,-7.34 h 2 c 2.11,0 7.75,2.08 8.67,3.33 L 62.03,7.48 66,10.75 66.38,9.35 69.34,8.54 69.38,6.69 h 1.34 v 2 z"
         class="st0"
         inkscape:connector-curvature="0"
         style="clip-rule:evenodd;fill:#a1e367;fill-rule:evenodd" />
    </g>
    <g
       id="g4608"
       transform="translate(1.5458838,-1.8913791)">
      <path
         id="path875-6"
         d="m 30.563446,17.468396 c 9.179335,0 16.621819,7.442484 16.621819,16.621818 0,9.179335 -7.442484,16.621819 -16.621819,16.621819 -9.179334,0 -16.621818,-7.442484 -16.621818,-16.621819 0,-9.179334 7.442484,-16.621818 16.621818,-16.621818 z"
         class="st1"
         inkscape:connector-curvature="0"
         style="clip-rule:evenodd;fill:#e04923;fill-opacity:1;fill-rule:evenodd;stroke-width:0.27053741" />
      <path
         id="path877-7"
         d="m 17.123148,42.677072 c -0.979345,-1.485251 -1.712502,-3.149056 -2.142656,-4.931897 l 2.927214,1.412205 0.01623,0.873836 c 0,0.32194 -0.546486,1.003694 -0.722335,1.26341 z M 35.127413,19.226889 c 5.578481,1.853181 9.763695,6.763435 10.569896,12.742312 l -0.527548,-0.05681 c -0.09469,0.405806 -0.18126,0.413923 -0.18126,0.90089 0,0.430154 0.541075,0.716924 0.541075,1.623224 0,0.243484 -0.570834,0.727746 -0.595182,0.814318 l -0.846782,-0.992872 v 1.263409 l -0.127153,-0.0054 -0.227251,-2.332033 -0.473441,0.148796 -0.562718,-1.734145 -1.853181,1.937048 -0.02164,1.417616 -0.606004,0.405806 -0.643879,-3.636023 -0.384163,0.281359 -0.87113,-1.176838 -1.301285,0.03788 -0.497789,-0.570834 -0.511316,0.140679 -1.003694,-1.149784 -0.194787,0.132563 0.622236,1.59076 h 0.722335 v -0.359814 h 0.359815 c 0.259716,0.719629 0.541075,0.29218 0.541075,0.722334 0,1.501483 -1.853181,2.605276 -3.067894,2.886635 0.06493,0.270537 0.04058,0.541074 0.359814,0.541074 0.679049,0 0.340878,-0.119036 1.08215,-0.18126 -0.03517,1.533948 -1.758493,3.365486 -2.494355,4.504448 l 0.330056,2.35097 c 0.08657,0.511316 -1.060507,1.049686 -1.450081,1.62593 L 32,44 31.472452,44.213724 c -0.09198,0.925238 -0.990167,1.950575 -1.999271,1.950575 h -1.08215 c 0,-1.266115 -0.903595,-3.07601 -0.903595,-3.971489 0,-0.76021 0.359815,-0.863014 0.359815,-1.804485 0,-0.87113 -0.90089,-2.118308 -0.90089,-2.345559 v -1.44467 h -0.722335 c -0.108215,-0.4031 -0.04058,-0.541075 -0.541074,-0.541075 h -0.18126 c -0.787264,0 -0.654701,0.359815 -1.44467,0.359815 h -0.722335 c -0.651995,0 -1.804485,-2.088549 -1.804485,-2.345559 v -2.164299 c 0,-0.933354 0.854899,-1.950575 1.44467,-2.34556 v -0.900889 l 0.811612,-0.825139 0.451798,-0.07575 c 0.968524,0 0.852193,-0.541075 1.44467,-0.541075 h 1.623224 v 1.26341 l 1.785547,0.762915 0.167733,-0.771031 c 0.808907,0.189376 1.019926,0.549191 2.015504,0.549191 h 0.359815 c 0.684459,0 0.722334,-0.909006 0.722334,-1.623225 l -1.444669,0.143385 -0.630352,-1.368919 -0.624942,0.165028 c 0.113626,0.489672 0.173144,0.286769 0.173144,0.700692 0,0.243483 -0.200198,0.270537 -0.36252,0.359814 l -0.624941,-1.585349 -1.344571,-0.960408 -0.178555,0.17585 1.144373,1.203891 c -0.151501,0.43286 -0.170438,1.680037 -0.800791,0.806202 l 0.589772,-0.284065 -1.471724,-1.542063 -0.881951,0.343583 -0.871131,0.833255 c -0.09198,0.670933 -0.273243,1.009104 -0.97664,1.009104 -0.46803,0 -0.186671,-0.121742 -0.903595,-0.18126 V 25.41408 h 1.623225 l -0.527548,-1.201186 -0.194787,0.119036 v -0.36252 l 2.637739,-1.214713 c -0.0487,-0.378752 -0.11092,-0.175849 -0.11092,-0.589772 0,-0.02435 0.175849,-0.357109 0.18126,-0.36252 l 0.681754,0.424744 -0.162322,-0.776442 -1.052391,0.21643 -0.194787,-0.944176 c 0.833256,-0.438271 2.670205,-1.985745 3.254566,-1.985745 h 0.541074 c 0.570834,0 2.096665,0.562718 2.34556,0.90089 l -1.447375,-0.14609 1.074033,0.884657 0.102804,-0.378752 0.800791,-0.219136 0.01082,-0.500494 h 0.36252 v 0.541075 z"
         class="st0"
         inkscape:connector-curvature="0"
         style="clip-rule:evenodd;fill:#67d4e3;fill-opacity:1;fill-rule:evenodd;stroke-width:0.27053741" />
    </g>
    <g
       id="g4656"
       transform="translate(-9,-5)">
      <path
         id="path875-6-5"
         d="m 51.630089,32.346169 c 9.179335,0 16.621819,7.442484 16.621819,16.621818 0,9.179335 -7.442484,16.621819 -16.621819,16.621819 -9.179334,0 -16.621818,-7.442484 -16.621818,-16.621819 0,-9.179334 7.442484,-16.621818 16.621818,-16.621818 z"
         class="st1"
         inkscape:connector-curvature="0"
         style="clip-rule:evenodd;fill:#dde023;fill-opacity:1;fill-rule:evenodd;stroke-width:0.27053741" />
      <path
         id="path877-7-6"
         d="m 38.189791,57.554845 c -0.979345,-1.485251 -1.712502,-3.149056 -2.142656,-4.931897 l 2.927214,1.412205 0.01623,0.873836 c 0,0.32194 -0.546486,1.003694 -0.722335,1.26341 z M 56.194056,34.104662 c 5.578481,1.853181 9.763695,6.763435 10.569896,12.742312 l -0.527548,-0.05681 c -0.09469,0.405806 -0.18126,0.413923 -0.18126,0.90089 0,0.430154 0.541075,0.716924 0.541075,1.623224 0,0.243484 -0.570834,0.727746 -0.595182,0.814318 l -0.846782,-0.992872 v 1.263409 l -0.127153,-0.0054 -0.227251,-2.332033 -0.473441,0.148796 -0.562718,-1.734145 -1.853181,1.937048 -0.02164,1.417616 -0.606004,0.405806 -0.643879,-3.636023 -0.384163,0.281359 -0.87113,-1.176838 -1.301285,0.03788 -0.497789,-0.570834 -0.511316,0.140679 -1.003694,-1.149784 -0.194787,0.132563 0.622236,1.59076 h 0.722335 v -0.359814 h 0.359815 c 0.259716,0.719629 0.541075,0.29218 0.541075,0.722334 0,1.501483 -1.853181,2.605276 -3.067894,2.886635 0.06493,0.270537 0.04058,0.541074 0.359814,0.541074 0.679049,0 0.340878,-0.119036 1.08215,-0.18126 C 56.459185,51.0295 54.735862,52.861038 54,54 l 0.330056,2.35097 c 0.08657,0.511316 -1.060507,1.049686 -1.450081,1.62593 l 0.186668,0.900873 -0.527548,0.213724 c -0.09198,0.925238 -0.990167,1.950575 -1.999271,1.950575 h -1.08215 c 0,-1.266115 -0.903595,-3.07601 -0.903595,-3.971489 0,-0.76021 0.359815,-0.863014 0.359815,-1.804485 0,-0.87113 -0.90089,-2.118308 -0.90089,-2.345559 v -1.44467 h -0.722335 c -0.108215,-0.4031 -0.04058,-0.541075 -0.541074,-0.541075 h -0.18126 c -0.787264,0 -0.654701,0.359815 -1.44467,0.359815 H 44.40133 c -0.651995,0 -1.804485,-2.088549 -1.804485,-2.345559 v -2.164299 c 0,-0.933354 0.854899,-1.950575 1.44467,-2.34556 v -0.900889 l 0.811612,-0.825139 0.451798,-0.07575 c 0.968524,0 0.852193,-0.541075 1.44467,-0.541075 h 1.623224 v 1.26341 l 1.785547,0.762915 0.167733,-0.771031 c 0.808907,0.189376 1.019926,0.549191 2.015504,0.549191 h 0.359815 c 0.684459,0 0.722334,-0.909006 0.722334,-1.623225 l -1.444669,0.143385 -0.630352,-1.368919 -0.624942,0.165028 c 0.113626,0.489672 0.173144,0.286769 0.173144,0.700692 0,0.243483 -0.200198,0.270537 -0.36252,0.359814 l -0.624941,-1.585349 -1.344571,-0.960408 -0.178555,0.17585 1.144373,1.203891 c -0.151501,0.43286 -0.170438,1.680037 -0.800791,0.806202 l 0.589772,-0.284065 -1.471724,-1.542063 -0.881951,0.343583 -0.871131,0.833255 c -0.09198,0.670933 -0.273243,1.009104 -0.97664,1.009104 -0.46803,0 -0.186671,-0.121742 -0.903595,-0.18126 v -1.804485 h 1.623225 l -0.527548,-1.201186 -0.194787,0.119036 v -0.36252 l 2.637739,-1.214713 c -0.0487,-0.378752 -0.11092,-0.175849 -0.11092,-0.589772 0,-0.02435 0.175849,-0.357109 0.18126,-0.36252 l 0.681754,0.424744 -0.162322,-0.776442 -1.052391,0.21643 -0.194787,-0.944176 c 0.833256,-0.438271 2.670205,-1.985745 3.254566,-1.985745 h 0.541074 c 0.570834,0 2.096665,0.562718 2.34556,0.90089 l -1.447375,-0.14609 1.074033,0.884657 0.102804,-0.378752 0.800791,-0.219136 0.01082,-0.500494 h 0.36252 v 0.541075 z"
         class="st0"
         inkscape:connector-curvature="0"
         style="clip-rule:evenodd;fill:#136919;fill-opacity:1;fill-rule:evenodd;stroke-width:0.27053741" />
    </g>
  </g>
</svg>
