<?xml version="1.0" encoding="UTF-8" standalone="no"?>
<!-- Created with Inkscape (http://www.inkscape.org/) -->

<svg
   xmlns:dc="http://purl.org/dc/elements/1.1/"
   xmlns:cc="http://creativecommons.org/ns#"
   xmlns:rdf="http://www.w3.org/1999/02/22-rdf-syntax-ns#"
   xmlns:svg="http://www.w3.org/2000/svg"
   xmlns="http://www.w3.org/2000/svg"
   xmlns:sodipodi="http://sodipodi.sourceforge.net/DTD/sodipodi-0.dtd"
   xmlns:inkscape="http://www.inkscape.org/namespaces/inkscape"
   id="svg5062"
   version="1.1"
   inkscape:version="0.92.5 (2060ec1f9f, 2020-04-08)"
   width="160"
   height="160"
   xml:space="preserve"
   sodipodi:docname="EOXLogo.svg"
   inkscape:export-filename="/home/xex/programs/qmapshack/src/icons/32x32/EOXLogo.png"
   inkscape:export-xdpi="19.200001"
   inkscape:export-ydpi="19.200001"><metadata
     id="metadata5068"><rdf:RDF><cc:Work
         rdf:about=""><dc:format>image/svg+xml</dc:format><dc:type
           rdf:resource="http://purl.org/dc/dcmitype/StillImage" /><dc:title></dc:title></cc:Work></rdf:RDF></metadata><defs
     id="defs5066" /><sodipodi:namedview
     pagecolor="#ffffff"
     bordercolor="#666666"
     borderopacity="1"
     objecttolerance="10"
     gridtolerance="10"
     guidetolerance="10"
     inkscape:pageopacity="1"
     inkscape:pageshadow="2"
     inkscape:window-width="1366"
     inkscape:window-height="719"
     id="namedview5064"
     showgrid="false"
     inkscape:zoom="1.4142136"
     inkscape:cx="20.063962"
     inkscape:cy="56.392828"
     inkscape:window-x="0"
     inkscape:window-y="25"
     inkscape:window-maximized="1"
     inkscape:current-layer="g5070"
     fit-margin-top="0"
     fit-margin-left="0"
     fit-margin-right="0"
     fit-margin-bottom="0" /><g
     id="g5070"
     inkscape:groupmode="layer"
     inkscape:label="ink_ext_XXXXXX"
     transform="matrix(1.25,0,0,-1.25,-89.687,159.99997)"><path
       inkscape:connector-curvature="0"
       id="path5076"
       style="fill:none;stroke:none"
       d="m 122.389,35.434 -0.6,0.0148 -0.59,0.045 -0.58,0.0742 -0.57,0.1019 -0.56,0.1297 -0.56,0.157 -0.54,0.1821 -0.52,0.209 -0.52,0.2332 -0.5,0.2558 -0.49,0.2813 -0.47,0.3019 -0.45,0.325 -0.44,0.3449 -0.43,0.3661 -0.4,0.3847 -0.39,0.4039 -0.36,0.4223 -0.35,0.4398 -0.32,0.4563 -0.3,0.4719 -0.28,0.4871 -0.26,0.5019 -0.23,0.516 -0.21,0.5278 -0.18,0.541 -0.16,0.5519 -0.13,0.5633 -0.1,0.5731 -0.08,0.5828 -0.04,0.591 -0.02,0.5988 c 0,6.418 5.21,11.625 11.63,11.625 6.43,0 11.63,-5.207 11.63,-11.625 0,-6.4289 -5.2,-11.6355 -11.63,-11.6355 z" /><path
       style="fill:#004170;fill-opacity:1;fill-rule:nonzero;stroke:none;stroke-width:0.80000001"
       d="m 135.74335,97.925771 c -33.6076,0 -60.848438,-15.187876 -60.848438,-33.921876 0,-10.6137 8.737488,-20.080909 22.417184,-26.3 -6.464896,4.389891 -10.722288,10.3785 -11.667184,17.4875 -2.148,16.1488 13.464248,32.656288 36.118748,39.692188 -11.75,-5.332 -19.93906,-17.141788 -19.93906,-30.879688 0,-18.5738 14.91875,-33.636719 33.41875,-33.90625 -0.03,-0.0039 -0.0694,-0.01172 -0.10937,-0.01562 0.21,0 0.40937,-0.0078 0.60937,-0.0078 33.61,0 60.86094,15.187888 60.86094,33.929688 0,10.609 -8.74969,20.078075 -22.42969,26.296875 l 0.6,-0.417187 0.58906,-0.425 0.57032,-0.434375 0.55937,-0.443751 0.55,-0.453125 0.53125,-0.4625 0.51875,-0.470312 0.5,-0.479688 0.49063,-0.4875 0.47031,-0.496875 0.45937,-0.504687 0.45,-0.514062 0.42969,-0.521876 0.41094,-0.529687 0.4,-0.5375 0.37969,-0.546875 0.35937,-0.554687 0.35,-0.5625 0.34063,-0.570313 0.30937,-0.578125 0.3,-0.584375 0.28125,-0.592187 0.26875,-0.6 0.24063,-0.607813 0.22968,-0.615625 0.21094,-0.621875 0.2,-0.629687 0.16875,-0.635938 0.15,-0.64375 0.14063,-0.65 0.12031,-0.65625 0.1,-0.664062 c 2.14,-16.152 -13.47031,-32.660573 -36.12031,-39.695313 11.75,5.33203 19.94062,17.140625 19.94062,30.890625 0,18.5621 -14.92031,33.62075 -33.42031,33.89375 0.04,0.0043 0.0803,0.01201 0.12031,0.02031 -0.21,0 -0.42125,0.0078 -0.63125,0.0078 z m -10.59844,-9.051563 a 11.4,11.399999 0 0 0 11.4,-11.4 11.4,11.399999 0 0 0 -11.4,-11.4 11.4,11.399999 0 0 0 -11.4,11.4 11.4,11.399999 0 0 0 11.4,11.4 z"
       id="path5078"
       inkscape:connector-curvature="0" /><path
       inkscape:connector-curvature="0"
       id="path5080"
       style="fill:none;stroke:none"
       d="m 171.029,60.2266 0.6,-0.4168 0.59,-0.425 0.57,-0.4352 0.56,-0.4441 0.55,-0.4528 0.53,-0.4621 0.52,-0.4699 0.5,-0.4801 0.49,-0.4879 0.47,-0.4961 0.46,-0.505 0.45,-0.5141 0.43,-0.5219 0.41,-0.5301 0.4,-0.5378 0.38,-0.5469 0.36,-0.5539 0.35,-0.5621 0.34,-0.57 0.31,-0.5781 0.3,-0.5851 0.28,-0.593 0.27,-0.6 0.24,-0.6078 0.23,-0.6153 0.21,-0.6218 0.2,-0.6289 0.17,-0.6371 0.15,-0.643 0.14,-0.65 0.12,-0.657 0.1,-0.6641 c 2.14,-16.152 -13.47,-32.6598 -36.12,-39.69454 11.75,5.33203 19.94,17.14064 19.94,30.89064 0,18.5621 -14.92,33.6207 -33.42,33.8937 0.04,0.0043 0.08,0.0121 0.12,0.0204 -0.21,0 -0.42,0.0078 -0.63,0.0078 -33.6076,0 -60.8494,-15.1879 -60.8494,-33.9219 0,-10.6137 8.7379,-20.0817 22.4176,-26.30079 -6.4649,4.38989 -10.7227,10.37889 -11.6676,17.48789 -2.148,16.1488 13.4649,32.6559 36.1194,39.6918 -11.75,-5.332 -19.9397,-17.141 -19.9397,-30.8789 0,-18.5738 14.9197,-33.636731 33.4197,-33.9062625 -0.03,-0.0039063 -0.07,-0.0117187 -0.11,-0.015625 0.21,0 0.41,-0.0078125 0.61,-0.0078125 33.61,0 60.86,15.1879 60.86,33.9297 0,10.609 -8.75,20.0781 -22.43,26.2969 z" /></g></svg>